<svg id="Lager_1" data-name="Lager 1" xmlns="http://www.w3.org/2000/svg" viewBox="0 0 182.67 27.93"><defs><style>.cls-1{fill:#1d1d1b;}</style></defs><title>jails-logo-new</title><path class="cls-1" d="M33.6,5.75h5.32v9.34a14.56,14.56,0,0,1-.52,4.47,5.17,5.17,0,0,1-2.1,2.6,7.08,7.08,0,0,1-4,1.07,9.33,9.33,0,0,1-4-.71A5.1,5.1,0,0,1,26,20.47a7.86,7.86,0,0,1-.92-3.35l5.08-.69a5.73,5.73,0,0,0,.2,1.69A1.83,1.83,0,0,0,31,19a1.43,1.43,0,0,0,.87.22,1.42,1.42,0,0,0,1.3-.66,4.38,4.38,0,0,0,.42-2.23Z"/><path class="cls-1" d="M52.4,20.1h-6l-.83,2.83H40.12L46.57,5.75h5.79l6.46,17.18H53.26Zm-1.1-3.72-1.9-6.17-1.87,6.17Z"/><path class="cls-1" d="M60.72,5.75H66V22.93H60.72Z"/><path class="cls-1" d="M69.85,5.75h5.3v13h8.29v4.23H69.85Z"/><path class="cls-1" d="M84.93,17.25l5-.32a3.84,3.84,0,0,0,.67,1.88,2.81,2.81,0,0,0,2.34,1,2.61,2.61,0,0,0,1.75-.53,1.62,1.62,0,0,0,.62-1.24,1.58,1.58,0,0,0-.59-1.19,6.56,6.56,0,0,0-2.72-1,11.51,11.51,0,0,1-5-2.09,4.18,4.18,0,0,1-1.5-3.31A4.51,4.51,0,0,1,86.34,8a5.06,5.06,0,0,1,2.31-1.86,10.94,10.94,0,0,1,4.22-.67,8.65,8.65,0,0,1,5,1.23,5.27,5.27,0,0,1,2,3.89l-5,.29a2.64,2.64,0,0,0-.84-1.68,2.7,2.7,0,0,0-1.76-.53,2.14,2.14,0,0,0-1.4.39,1.21,1.21,0,0,0-.47,1,1,1,0,0,0,.39.74,4.51,4.51,0,0,0,1.78.63,22,22,0,0,1,5,1.52,5.24,5.24,0,0,1,2.19,1.9,4.81,4.81,0,0,1,.68,2.54,5.43,5.43,0,0,1-.91,3.05,5.74,5.74,0,0,1-2.55,2.12,10.38,10.38,0,0,1-4.14.72c-2.92,0-5-.57-6.07-1.69A6.66,6.66,0,0,1,84.93,17.25Z"/><path class="cls-1" d="M121.75,20.1h-6l-.84,2.83h-5.42l6.45-17.18h5.8l6.45,17.18h-5.56Zm-1.1-3.72-1.9-6.17-1.87,6.17Z"/><path class="cls-1" d="M140.22,5.75h5.29V16a8.51,8.51,0,0,1-.47,2.87,6.2,6.2,0,0,1-1.49,2.37,5.73,5.73,0,0,1-2.13,1.42,10.7,10.7,0,0,1-3.71.58,22.85,22.85,0,0,1-2.74-.18,7.14,7.14,0,0,1-2.47-.7,6,6,0,0,1-1.83-1.48,5.55,5.55,0,0,1-1.13-2,10.16,10.16,0,0,1-.49-2.9V5.75h5.3V16.23a3,3,0,0,0,.78,2.2,3.35,3.35,0,0,0,4.31,0,3,3,0,0,0,.78-2.21Z"/><path class="cls-1" d="M147.82,5.75H164V10h-5.41V22.93h-5.31V10h-5.42Z"/><path class="cls-1" d="M164.87,14.36a8.89,8.89,0,0,1,2.35-6.56,8.83,8.83,0,0,1,6.53-2.34,9,9,0,0,1,6.6,2.3,8.68,8.68,0,0,1,2.32,6.45,10.51,10.51,0,0,1-1,4.94,7.12,7.12,0,0,1-2.93,3A9.62,9.62,0,0,1,174,23.23a10.91,10.91,0,0,1-4.81-.93,7.24,7.24,0,0,1-3.09-2.93A9.73,9.73,0,0,1,164.87,14.36Zm5.31,0a5.74,5.74,0,0,0,1,3.74,3.67,3.67,0,0,0,5.28,0c.62-.74.94-2.07.94-4a5.33,5.33,0,0,0-1-3.54,3.34,3.34,0,0,0-2.66-1.12,3.19,3.19,0,0,0-2.57,1.14A5.75,5.75,0,0,0,170.18,14.38Z"/><path class="cls-1" d="M0,0,23.92,10.83,8.63,27.93H0Z"/></svg>